<svg xmlns="http://www.w3.org/2000/svg" xmlns:xlink="http://www.w3.org/1999/xlink" viewBox="0 0 64.87 64.81"><defs><style>.cls-1{fill:url(#Безымянный_градиент_53);}.cls-2{fill:url(#Безымянный_градиент_53-2);}.cls-3{fill:url(#Безымянный_градиент_53-3);}</style><linearGradient id="Безымянный_градиент_53" y1="56.94" x2="64.76" y2="56.94" gradientUnits="userSpaceOnUse"><stop offset="0.01" stop-color="#7300ed"/><stop offset="0.95" stop-color="#008dfc"/></linearGradient><linearGradient id="Безымянный_градиент_53-2" x1="0.04" y1="8.09" x2="64.87" y2="8.09" xlink:href="#Безымянный_градиент_53"/><linearGradient id="Безымянный_градиент_53-3" x1="0.07" y1="32.6" x2="64.84" y2="32.6" xlink:href="#Безымянный_градиент_53"/></defs><g id="Слой_2" data-name="Слой 2"><g id="Слой_1-2" data-name="Слой 1"><path class="cls-1" d="M0,64.81V49.06H64.76V64.81Z"/><path class="cls-2" d="M64.84,16.18H0V.2C1,.13,1.81,0,2.61,0,17.83,0,33.05,0,48.27,0c8.69,0,15.38,5.85,16.56,14.2A15.62,15.62,0,0,1,64.84,16.18Z"/><path class="cls-3" d="M64.84,24.44c-.3,9-6.61,16-15.1,16.16-16.35.32-32.71.1-49.07.09-.18,0-.36-.18-.54-.27-.73-6.6,5.23-14.65,13.36-15.73a43.1,43.1,0,0,1,5.57-.24q20.82,0,41.63,0Z"/></g></g></svg>