<?xml version="1.0" standalone="no"?>
<!DOCTYPE svg PUBLIC "-//W3C//DTD SVG 20010904//EN"
 "http://www.w3.org/TR/2001/REC-SVG-20010904/DTD/svg10.dtd">
<svg version="1.0" xmlns="http://www.w3.org/2000/svg"
 width="700.000000pt" height="700.000000pt" viewBox="0 0 700.000000 700.000000"
 preserveAspectRatio="xMidYMid meet">
<metadata>
Created by potrace 1.14, written by Peter Selinger 2001-2017
</metadata>
<g transform="translate(0.000000,700.000000) scale(0.100000,-0.100000)"
fill="#000000" stroke="none">
<path d="M159 6996 c-4 -4 -102 -15 -137 -16 l-22 0 2 -862 3 -863 3495 0
3495 0 -1 125 c-2 263 -113 593 -287 850 -244 361 -598 606 -1032 714 -59 15
-82 19 -159 31 -21 4 -48 10 -60 13 -22 7 -5289 15 -5297 8z"/>
<path d="M1719 4355 c-2 -1 -51 -6 -109 -10 -58 -3 -116 -8 -130 -10 -65 -8
-112 -16 -175 -30 -302 -64 -658 -283 -879 -541 -93 -109 -166 -206 -166 -223
0 -5 -4 -11 -9 -13 -14 -5 -110 -192 -146 -288 -31 -79 -65 -198 -80 -280 -4
-19 -9 -98 -12 -175 -5 -134 -4 -141 16 -160 22 -19 44 -19 749 -22 2695 -10
4576 -2 4740 21 18 3 52 8 75 11 249 36 541 165 742 328 62 51 208 197 256
257 153 192 290 472 345 706 21 90 23 102 30 144 3 19 9 60 14 90 5 30 10 87
12 125 l3 70 -2636 2 c-1451 1 -2639 0 -2640 -2z"/>
<path d="M0 850 l0 -850 3495 0 3495 0 0 850 0 850 -3495 0 -3495 0 0 -850z"/>
</g>
</svg>
