<svg xmlns="http://www.w3.org/2000/svg" xmlns:xlink="http://www.w3.org/1999/xlink" viewBox="0 0 447.41 73.53"><defs><style>.cls-1{fill:url(#Безымянный_градиент_35);}.cls-2{fill:none;}</style><radialGradient id="Безымянный_градиент_35" cx="378.33" cy="-4.38" r="107.22" gradientUnits="userSpaceOnUse"><stop offset="0" stop-color="#008d1c"/><stop offset="0.23" stop-color="#feea10"/><stop offset="0.51" stop-color="#fcce0e"/><stop offset="0.73" stop-color="#feea10"/><stop offset="0.95" stop-color="#008d1c"/></radialGradient></defs><g id="Слой_2" data-name="Слой 2"><g id="Слой_1-2" data-name="Слой 1"><path d="M25.94,20.21A23.32,23.32,0,0,1,37.2,17.56,22.78,22.78,0,0,1,54.34,25L64.18,16A31.26,31.26,0,0,0,52.25,7.43,41.12,41.12,0,0,0,36.44,4.49,39.42,39.42,0,0,0,17.7,8.9a32.53,32.53,0,0,0-13,12.21A33.57,33.57,0,0,0,0,38.76,33.6,33.6,0,0,0,4.69,56.42,32.79,32.79,0,0,0,17.6,68.63,38.72,38.72,0,0,0,36.16,73a48.29,48.29,0,0,0,14.3-2.18A40.09,40.09,0,0,0,63,64.61V37.72h-14V57.13A24.88,24.88,0,0,1,37,60a22.57,22.57,0,0,1-11.12-2.7,19.43,19.43,0,0,1-7.62-7.53,21.78,21.78,0,0,1-2.75-11,22,22,0,0,1,2.75-11.07A19,19,0,0,1,25.94,20.21Z"/><path class="cls-1" d="M373.82,73.53V55.66h73.47V73.53Z"/><path class="cls-1" d="M447.38,18.36H373.86V.22c1.11-.07,2-.19,2.93-.19,17.26,0,34.53-.06,51.79,0,9.87,0,17.46,6.63,18.79,16.11A17.84,17.84,0,0,1,447.38,18.36Z"/><path class="cls-1" d="M447.38,27.72c-.34,10.22-7.5,18.15-17.13,18.34-18.55.36-37.11.11-55.67.1-.2,0-.41-.2-.61-.31-.83-7.48,5.93-16.62,15.16-17.84a49.26,49.26,0,0,1,6.32-.27q23.61,0,47.22,0Z"/><path class="cls-2" d="M189.42,20.25a22.23,22.23,0,0,0-21.2,0,19.37,19.37,0,0,0-7.44,7.53,22.11,22.11,0,0,0-2.69,11,22.06,22.06,0,0,0,2.69,11,19.37,19.37,0,0,0,7.44,7.53,22.16,22.16,0,0,0,21.2,0,19.35,19.35,0,0,0,7.43-7.53,22.06,22.06,0,0,0,2.7-11,22.12,22.12,0,0,0-2.7-11A19.35,19.35,0,0,0,189.42,20.25Z"/><path d="M131.06,42.41a22.47,22.47,0,0,0,3.55-12.73,23,23,0,0,0-3.5-12.79,22.84,22.84,0,0,0-10-8.33,36.94,36.94,0,0,0-15.29-2.93H77.15V18.12H105q6.92,0,10.51,3t3.6,8.57a10.52,10.52,0,0,1-3.6,8.52q-3.6,3-10.51,3H77.15V71.9H92.49V53.44h14.1L119.37,71.9h16.47L121,50.6A22.57,22.57,0,0,0,131.06,42.41Z"/><path d="M197.37,9a40.91,40.91,0,0,0-37.15,0,33,33,0,0,0-13,12.25,33.45,33.45,0,0,0-4.69,17.56,33.4,33.4,0,0,0,4.69,17.56,33,33,0,0,0,13,12.26,41,41,0,0,0,37.15,0,33.18,33.18,0,0,0,17.71-29.82A33.15,33.15,0,0,0,197.37,9Zm-.52,40.79a19.35,19.35,0,0,1-7.43,7.53,22.16,22.16,0,0,1-21.2,0,19.37,19.37,0,0,1-7.44-7.53,22.06,22.06,0,0,1-2.69-11,22.11,22.11,0,0,1,2.69-11,19.37,19.37,0,0,1,7.44-7.53,22.23,22.23,0,0,1,21.2,0,19.35,19.35,0,0,1,7.43,7.53,22.12,22.12,0,0,1,2.7,11A22.06,22.06,0,0,1,196.85,49.74Z"/><path d="M270.93,42.17q0,9.18-3.79,13.49c-2.52,2.87-6.19,4.31-11,4.31q-14.76,0-14.77-17.8V5.63H226.06V42.74q0,14.58,7.9,22.44T256.06,73q14.2,0,22.11-7.85t7.91-22.44V5.63H270.93Z"/><path d="M355.18,16.89a22.84,22.84,0,0,0-10-8.33A36.91,36.91,0,0,0,329.9,5.63H301.22V18.17h15.33v-.05h12.5q6.92,0,10.51,3t3.59,8.57q0,5.49-3.59,8.47t-10.51,3l-5.24.14H301.22V71.9h15.33V53.62H329.9a37.41,37.41,0,0,0,15.29-2.88,22.38,22.38,0,0,0,10-8.33,23.07,23.07,0,0,0,3.5-12.73A23,23,0,0,0,355.18,16.89Z"/></g></g></svg>